<svg width="24" height="24" viewBox="0 0 24 24" fill="none" xmlns="http://www.w3.org/2000/svg">
<path fill-rule="evenodd" clip-rule="evenodd" d="M12.2577 3.5973C11.9086 3.9511 11.9124 4.52093 12.2662 4.87007L17.3054 9.84291H13.4054C11.4832 9.8429 9.95982 9.84289 8.75509 9.98619C7.51794 10.1333 6.49939 10.4424 5.6504 11.1456C5.37756 11.3715 5.1265 11.6226 4.90053 11.8954C4.19739 12.7444 3.8883 13.763 3.74114 15.0001C3.59784 16.2049 3.59785 17.7282 3.59787 19.6504V19.7095C3.59787 20.2065 4.00081 20.6095 4.49787 20.6095C4.99492 20.6095 5.39787 20.2065 5.39787 19.7095C5.39787 17.715 5.39936 16.2988 5.52854 15.2127C5.65533 14.1468 5.89415 13.5177 6.28681 13.0436C6.44102 12.8574 6.61234 12.6861 6.79853 12.5319C7.27264 12.1392 7.90179 11.9004 8.9677 11.7736C10.0537 11.6444 11.4699 11.6429 13.4644 11.6429H17.3054L12.8662 16.0236C12.5124 16.3728 12.5086 16.9426 12.8578 17.2964C13.2069 17.6502 13.7767 17.654 14.1305 17.3048L20.1308 11.3835C20.3022 11.2144 20.3987 10.9837 20.3987 10.7429C20.3987 10.5022 20.3022 10.2714 20.1308 10.1023L13.5305 3.58887C13.1767 3.23973 12.6069 3.24351 12.2577 3.5973Z" fill="white"/>
</svg>
