<svg width="20" height="20" viewBox="0 0 20 20" fill="none" xmlns="http://www.w3.org/2000/svg">
<rect width="20" height="20" rx="10" fill="#007AFF"/>
<path d="M15.8432 7.66749L10.5499 16.0967C10.4853 16.1991 10.3958 16.2834 10.2897 16.3417C10.1836 16.4 10.0644 16.4303 9.94332 16.4299C9.82225 16.4295 9.70328 16.3983 9.59758 16.3393C9.49188 16.2803 9.40292 16.1953 9.33906 16.0925L4.14989 7.66416C4.00476 7.42775 3.92803 7.15573 3.92822 6.87833C3.9348 6.4687 4.10364 6.07841 4.39767 5.79312C4.6917 5.50784 5.08691 5.35087 5.49656 5.35666H14.5107C15.3716 5.35666 16.0716 6.03583 16.0716 6.87499C16.071 7.15531 15.9919 7.42985 15.8432 7.66749ZM5.42489 7.38583L9.28572 13.3392V6.78583H5.82822C5.42822 6.78583 5.24989 7.04999 5.42489 7.38583ZM10.7141 13.3392L14.5749 7.38583C14.7532 7.04999 14.5716 6.78583 14.1716 6.78583H10.7141V13.3392Z" fill="white"/>
</svg>
