<svg width="24" height="24" viewBox="0 0 24 24" fill="none" xmlns="http://www.w3.org/2000/svg">
<path d="M11.4692 18.6L6.969 21.33C6.74452 21.4679 6.47471 21.5116 6.21817 21.4517C5.96164 21.3918 5.73911 21.2331 5.59893 21.01C5.52869 20.898 5.48184 20.7729 5.46122 20.6423C5.44059 20.5117 5.44662 20.3782 5.47892 20.25L6.17896 17.52C6.42898 16.54 7.10901 15.72 8.02906 15.28L12.9393 12.94C13.0491 12.888 13.1339 12.7947 13.1751 12.6804C13.2163 12.5661 13.2107 12.4401 13.1593 12.33C13.115 12.2392 13.042 12.1655 12.9517 12.1204C12.8613 12.0752 12.7585 12.061 12.6593 12.08L7.19902 13.02C6.64913 13.1144 6.08529 13.0882 5.54654 12.9432C5.00779 12.7981 4.507 12.5377 4.07885 12.18L2.35875 10.75C2.20137 10.6266 2.08554 10.4579 2.02682 10.2667C1.9681 10.0754 1.9693 9.87083 2.03027 9.68032C2.09124 9.4898 2.20905 9.3225 2.36788 9.20089C2.52671 9.07929 2.71895 9.00919 2.91879 9.00003L8.18907 8.59003C8.37151 8.57497 8.54633 8.51013 8.69445 8.40257C8.84258 8.295 8.95834 8.14885 9.02912 7.98003L11.0692 3.10003C11.1475 2.92257 11.2756 2.7717 11.4381 2.66579C11.6006 2.55987 11.7903 2.50348 11.9843 2.50348C12.1782 2.50348 12.368 2.55987 12.5304 2.66579C12.6929 2.7717 12.8211 2.92257 12.8993 3.10003L14.9394 7.98003C15.0116 8.14697 15.128 8.29107 15.276 8.39679C15.4241 8.50252 15.5981 8.56587 15.7795 8.58003L21.0798 9.00003C21.2732 9.01642 21.4575 9.08931 21.6098 9.20961C21.7621 9.32992 21.8757 9.49234 21.9365 9.67668C21.9972 9.86102 22.0024 10.0592 21.9514 10.2464C21.9005 10.4337 21.7956 10.6019 21.6498 10.73L17.6096 14.16C17.4687 14.2764 17.3631 14.4298 17.3048 14.603C17.2465 14.7761 17.2377 14.9622 17.2796 15.14L18.5296 20.27C18.5608 20.3974 18.5663 20.5298 18.5459 20.6594C18.5254 20.7889 18.4795 20.9132 18.4106 21.0248C18.3418 21.1365 18.2514 21.2333 18.1448 21.3097C18.0382 21.3862 17.9174 21.4407 17.7896 21.47C17.5322 21.5273 17.2627 21.4805 17.0395 21.34L12.4993 18.6C12.3438 18.5066 12.1657 18.4572 11.9843 18.4572C11.8028 18.4572 11.6248 18.5066 11.4692 18.6Z" fill="#FFC943"/>
<path d="M11.4692 18.6L6.969 21.33C6.74452 21.4679 6.47471 21.5116 6.21817 21.4517C5.96164 21.3918 5.73911 21.2331 5.59893 21.01C5.52869 20.898 5.48184 20.7729 5.46122 20.6423C5.44059 20.5117 5.44662 20.3782 5.47892 20.25L6.17896 17.52C6.42898 16.54 7.10901 15.72 8.02906 15.28L12.9393 12.94C13.0491 12.888 13.1339 12.7947 13.1751 12.6804C13.2163 12.5661 13.2107 12.4401 13.1593 12.33C13.115 12.2392 13.042 12.1655 12.9517 12.1204C12.8613 12.0752 12.7585 12.061 12.6593 12.08L7.19902 13.02C6.64913 13.1144 6.08529 13.0882 5.54654 12.9432C5.00779 12.7981 4.507 12.5377 4.07885 12.18L2.35875 10.75C2.20137 10.6266 2.08554 10.4579 2.02682 10.2667C1.9681 10.0754 1.9693 9.87083 2.03027 9.68032C2.09124 9.4898 2.20905 9.3225 2.36788 9.20089C2.52671 9.07929 2.71895 9.00919 2.91879 9.00003L8.18907 8.59003C8.37151 8.57497 8.54633 8.51013 8.69445 8.40257C8.84258 8.295 8.95834 8.14885 9.02912 7.98003L11.0692 3.10003C11.1475 2.92257 11.2756 2.7717 11.4381 2.66579C11.6006 2.55987 11.7903 2.50348 11.9843 2.50348C12.1782 2.50348 12.368 2.55987 12.5304 2.66579C12.6929 2.7717 12.8211 2.92257 12.8993 3.10003L14.9394 7.98003C15.0116 8.14697 15.128 8.29107 15.276 8.39679C15.4241 8.50252 15.5981 8.56587 15.7795 8.58003L21.0798 9.00003C21.2732 9.01642 21.4575 9.08931 21.6098 9.20961C21.7621 9.32992 21.8757 9.49234 21.9365 9.67668C21.9972 9.86102 22.0024 10.0592 21.9514 10.2464C21.9005 10.4337 21.7956 10.6019 21.6498 10.73L17.6096 14.16C17.4687 14.2764 17.3631 14.4298 17.3048 14.603C17.2465 14.7761 17.2377 14.9622 17.2796 15.14L18.5296 20.27C18.5608 20.3974 18.5663 20.5298 18.5459 20.6594C18.5254 20.7889 18.4795 20.9132 18.4106 21.0248C18.3418 21.1365 18.2514 21.2333 18.1448 21.3097C18.0382 21.3862 17.9174 21.4407 17.7896 21.47C17.5322 21.5273 17.2627 21.4805 17.0395 21.34L12.4993 18.6C12.3438 18.5066 12.1657 18.4572 11.9843 18.4572C11.8028 18.4572 11.6248 18.5066 11.4692 18.6Z" fill="url(#paint0_linear_26_1033)"/>
<defs>
<linearGradient id="paint0_linear_26_1033" x1="11.9849" y1="2.50348" x2="11.9849" y2="21.4939" gradientUnits="userSpaceOnUse">
<stop stop-color="#FFE8AF"/>
<stop offset="1" stop-color="#FFC943"/>
</linearGradient>
</defs>
</svg>
